PathFileType	4	(X/Y/Z)	C:\MyCloud\GitHub\OpenSimScripting\Matlab\Data\Gait2354_Simbody\Hip_Kinetic_SLOW_Crop_Marker.trc	
DataRate	CameraRate	NumFrames	NumMarkers	Units	OrigDataRate	OrigDataStartFrame	OrigNumFrames
100	100	6	34	mm	100	2535	1050
Frame#	Time	Torso2			Torso3			Torso4			Hip1			Hip2			LThigh1			LThigh2			LThigh3			LThigh4			RThigh1			RThigh2			RThigh3			RThigh4			RTibia1			RTibia2			RTibia3			RTibia4			LTibia1			LTibia2			LTibia3			LTibia4			LFoot1			LFoot2			LFoot3			LFoot4			RFoot1			RFoot2			RFoot3			RFoot4			C7			Torso5			C_31			C_32			C_33			
		X1	Y1	Z1	X2	Y2	Z2	X3	Y3	Z3	X4	Y4	Z4	X5	Y5	Z5	X6	Y6	Z6	X7	Y7	Z7	X8	Y8	Z8	X9	Y9	Z9	X10	Y10	Z10	X11	Y11	Z11	X12	Y12	Z12	X13	Y13	Z13	X14	Y14	Z14	X15	Y15	Z15	X16	Y16	Z16	X17	Y17	Z17	X18	Y18	Z18	X19	Y19	Z19	X20	Y20	Z20	X21	Y21	Z21	X22	Y22	Z22	X23	Y23	Z23	X24	Y24	Z24	X25	Y25	Z25	X26	Y26	Z26	X27	Y27	Z27	X28	Y28	Z28	X29	Y29	Z29	X30	Y30	Z30	X31	Y31	Z31	X32	Y32	Z32	X33	Y33	Z33	X34	Y34	Z34	

2535	5.26000	505.05814	-289.15448	-1220.24658	488.92093	-293.80441	-1153.18311	515.83929	-440.66287	-1272.90491	272.42026	-450.43384	-835.20313	243.32083	-140.87437	-861.31213	143.23190	-506.15442	-787.64447	127.11524	-533.47577	-401.55966	137.60703	-391.24298	-392.15701	237.43813	-484.19733	-659.15979	154.65810	-115.61868	-782.92877	126.63531	-95.62778	-401.73587	117.55943	-236.28423	-380.19678	207.31718	-141.65152	-491.20871	91.01402	-80.69859	-348.20297	40.60097	-92.45383	60.83499	85.78815	-179.03926	47.24723	151.85634	-115.34624	-313.06757	91.98560	-547.49426	-363.70367	31.25627	-547.84637	50.34425	78.11620	-464.58453	40.68057	144.87747	-516.64508	-315.27872	6.47849	-486.99072	27.11971	95.98833	-584.46301	159.67625	192.42273	-533.50336	190.96227	150.53859	-481.54370	167.47963	10.81235	-151.62146	28.68815	112.59304	-52.26938	147.02151	191.29292	-95.58381	190.62314	151.74258	-149.73499	177.04770	440.78668	-311.01968	-1394.87012	499.23141	-152.34801	-1288.57104	0.00000	0.00000	0.00000	0.00000	0.00000	0.00000	0.00000	0.00000	0.00000	
2536	5.27000	504.88260	-289.25555	-1220.51660	488.82709	-293.87497	-1153.44153	515.70416	-440.76828	-1273.04749	272.58603	-450.39017	-835.24353	243.35165	-140.93942	-861.34686	143.47397	-506.00986	-787.56287	127.34869	-533.31415	-401.52112	137.64165	-391.27570	-392.19177	237.51198	-484.18378	-659.23071	154.64163	-115.62135	-782.98700	126.53744	-95.62500	-401.69086	117.68687	-236.22504	-380.18985	207.33231	-141.68404	-491.29166	91.04547	-80.66981	-348.25104	40.58787	-92.48573	60.79693	86.03300	-179.16678	47.12852	151.92799	-115.32174	-313.12595	92.12734	-547.62939	-363.78571	31.39736	-547.82837	50.35338	78.20038	-464.54651	40.63020	144.99390	-516.60852	-315.31433	6.43842	-486.98615	27.10421	96.12389	-584.48541	159.69069	192.53290	-533.49670	190.89816	150.62469	-481.49149	167.41420	10.86283	-151.51346	28.71763	112.61275	-52.14500	146.92110	191.35202	-95.51840	190.54744	151.95389	-149.75516	176.96477	440.55756	-311.10013	-1395.14795	499.05695	-152.55760	-1288.82422	0.00000	0.00000	0.00000	0.00000	0.00000	0.00000	0.00000	0.00000	0.00000	
2537	5.28000	504.62082	-289.29306	-1220.74475	488.52002	-294.01862	-1153.78894	515.45966	-440.81821	-1273.25195	272.55402	-450.44153	-835.28693	243.42491	-140.86169	-861.31873	143.74078	-505.93195	-787.50177	126.98447	-533.75610	-401.80219	137.62408	-391.27161	-392.25681	237.47652	-484.19211	-659.29010	154.61092	-115.59470	-783.03040	126.64552	-95.56303	-401.78400	117.70856	-236.20985	-380.18723	207.34236	-141.68494	-491.32980	90.99135	-80.63357	-348.25247	40.53963	-92.40871	60.78495	86.07989	-179.18985	47.10539	151.84952	-115.28920	-313.12164	92.08520	-547.63971	-363.76746	31.48349	-547.86115	50.34018	78.14458	-464.57306	40.62437	144.89973	-516.64972	-315.34265	6.43742	-486.96777	27.08979	96.09241	-584.43646	159.65872	192.52541	-533.48267	190.86548	150.61766	-481.49759	167.38873	10.82985	-151.56693	28.74001	112.57482	-52.09536	146.92754	191.32594	-95.43002	190.55060	151.95677	-149.72760	176.93294	440.16971	-311.17120	-1395.30786	498.78860	-152.70894	-1289.07422	0.00000	0.00000	0.00000	0.00000	0.00000	0.00000	0.00000	0.00000	0.00000	
2538	5.29000	504.29739	-289.38239	-1221.01123	488.42435	-294.03934	-1153.97815	514.98230	-440.90244	-1273.43506	272.64868	-450.36423	-835.24463	243.47598	-140.81090	-861.17047	143.29552	-506.09442	-787.71124	126.78021	-533.76038	-401.71741	137.58969	-391.27182	-392.19266	237.37817	-484.19141	-659.32886	154.64824	-115.53748	-783.02393	126.53033	-95.54003	-401.72595	117.48388	-236.20407	-380.22604	207.33206	-141.67593	-491.30191	90.89465	-80.62818	-348.16232	40.52788	-92.36311	60.83701	85.82809	-178.93680	47.27707	151.79227	-115.22410	-313.06161	91.93113	-547.55804	-363.74091	31.31937	-547.83771	50.36728	78.04131	-464.63229	40.67716	144.76991	-516.70386	-315.28763	6.45896	-487.06781	27.12812	95.92020	-584.39484	159.76067	192.45973	-533.48157	190.91566	150.54173	-481.52432	167.43317	10.79560	-151.47548	28.77536	112.51254	-52.10339	147.01602	191.26900	-95.36265	190.62953	151.74896	-149.57579	177.09688	439.60175	-311.18405	-1395.56116	498.51984	-152.83667	-1289.29517	0.00000	0.00000	0.00000	0.00000	0.00000	0.00000	0.00000	0.00000	0.00000	
2539	5.30000	503.95810	-289.51498	-1221.27612	488.17630	-294.15121	-1154.26892	514.55298	-440.98322	-1273.67517	272.74655	-450.25089	-835.23590	243.58804	-140.82092	-861.04919	143.44189	-506.00803	-787.63831	127.01168	-533.41895	-401.45660	137.64374	-391.33496	-392.17862	237.42387	-484.20834	-659.34845	154.65504	-115.51840	-782.96606	126.57680	-95.50062	-401.65982	117.56861	-236.16989	-380.12454	207.37746	-141.67053	-491.26501	90.91610	-80.62556	-348.10315	40.55042	-92.40464	60.90078	86.04975	-179.06418	47.32986	151.84221	-115.22079	-312.98691	92.01237	-547.67090	-363.73663	31.25070	-547.83807	50.44524	78.15628	-464.66251	40.68224	144.83444	-516.73816	-315.23792	6.45226	-487.04700	27.15856	96.00024	-584.54919	159.76881	192.46761	-533.61200	190.99533	150.58452	-481.59860	167.49062	10.87546	-151.35905	28.89506	112.42645	-52.07267	147.11066	191.24973	-95.27936	190.77737	151.89789	-149.61002	177.11746	439.26083	-311.32422	-1395.62195	498.25763	-153.00380	-1289.53735	0.00000	0.00000	0.00000	0.00000	0.00000	0.00000	0.00000	0.00000	0.00000	
2540	5.31000	503.52368	-289.62186	-1221.59985	487.54099	-294.49454	-1154.67419	513.86261	-441.15073	-1273.96423	272.74738	-450.23026	-835.23413	243.61931	-140.79059	-860.93805	143.83598	-505.81027	-787.40533	127.18581	-533.42407	-401.40628	137.64766	-391.37430	-392.09833	237.39871	-484.29813	-659.36890	154.62141	-115.47245	-782.83527	126.56884	-95.47665	-401.55161	117.50359	-236.14355	-380.03354	207.27502	-141.73215	-491.15433	90.88387	-80.58022	-348.01089	40.53165	-92.39744	60.99072	86.25754	-179.19583	47.31988	151.80896	-115.20630	-312.85739	91.97776	-547.66248	-363.66327	31.25521	-547.87164	50.50110	78.19703	-464.78424	40.73088	144.81427	-516.77637	-315.17609	6.47792	-487.07678	27.19327	95.89201	-584.61353	159.87868	192.35677	-533.78296	191.10986	150.58330	-481.77585	167.58434	10.90439	-151.38596	28.95735	112.33763	-52.06947	147.28630	191.15617	-95.23177	190.93095	151.87930	-149.62593	177.25723	438.76709	-311.41254	-1395.78528	497.88522	-153.12474	-1289.81726	0.00000	0.00000	0.00000	0.00000	0.00000	0.00000	0.00000	0.00000	0.00000	
